<svg xmlns="http://www.w3.org/2000/svg" xmlns:xlink="http://www.w3.org/1999/xlink" width="500" zoomAndPan="magnify" viewBox="0 0 375 374.999991" height="500" preserveAspectRatio="xMidYMid meet" version="1.0"><defs><g/><clipPath id="36f9c1f6e6"><path d="M 70.1875 116 L 181.910156 116 L 181.910156 242.808594 L 70.1875 242.808594 Z M 70.1875 116 " clip-rule="nonzero"/></clipPath><clipPath id="8982ad93d9"><path d="M 193.082031 116 L 304.804688 116 L 304.804688 242.808594 L 193.082031 242.808594 Z M 193.082031 116 " clip-rule="nonzero"/></clipPath><clipPath id="b972d5c3cd"><path d="M 192 58.074219 L 266 58.074219 L 266 103 L 192 103 Z M 192 58.074219 " clip-rule="nonzero"/></clipPath><clipPath id="36418fff6d"><path d="M 240 62 L 310.984375 62 L 310.984375 106 L 240 106 Z M 240 62 " clip-rule="nonzero"/></clipPath><clipPath id="d44efa774f"><path d="M 109 58.074219 L 182 58.074219 L 182 103 L 109 103 Z M 109 58.074219 " clip-rule="nonzero"/></clipPath><clipPath id="ec9d4075e2"><path d="M 64.234375 62 L 135 62 L 135 106 L 64.234375 106 Z M 64.234375 62 " clip-rule="nonzero"/></clipPath></defs><rect x="-37.5" width="450" fill="#ffffff" y="-37.499999" height="449.999989" fill-opacity="1"/><rect x="-37.5" width="450" fill="#600060" y="-37.499999" height="449.999989" fill-opacity="1"/><g clip-path="url(#36f9c1f6e6)"><path fill="#ffffff" d="M 181.648438 242.808594 L 142.242188 116.597656 L 70.691406 116.597656 Z M 181.648438 242.808594 " fill-opacity="1" fill-rule="nonzero"/></g><path fill="#ffffff" d="M 223.761719 116.597656 L 187.496094 232.707031 L 151.230469 116.597656 Z M 223.761719 116.597656 " fill-opacity="1" fill-rule="nonzero"/><g clip-path="url(#8982ad93d9)"><path fill="#ffffff" d="M 193.320312 242.808594 L 232.75 116.597656 L 304.300781 116.597656 Z M 193.320312 242.808594 " fill-opacity="1" fill-rule="nonzero"/></g><g clip-path="url(#b972d5c3cd)"><path fill="#ffffff" d="M 192.996094 58.097656 L 265.265625 58.097656 L 233.539062 102.699219 Z M 192.996094 58.097656 " fill-opacity="1" fill-rule="nonzero"/></g><g clip-path="url(#36418fff6d)"><path fill="#ffffff" d="M 240.933594 105.164062 L 310.390625 105.164062 L 271.375 62.351562 Z M 240.933594 105.164062 " fill-opacity="1" fill-rule="nonzero"/></g><path fill="#ffffff" d="M 149.265625 105.164062 L 225.726562 105.164062 L 187.496094 63.09375 Z M 149.265625 105.164062 " fill-opacity="1" fill-rule="nonzero"/><g clip-path="url(#d44efa774f)"><path fill="#ffffff" d="M 181.996094 58.097656 L 109.726562 58.097656 L 141.453125 102.699219 Z M 181.996094 58.097656 " fill-opacity="1" fill-rule="nonzero"/></g><g clip-path="url(#ec9d4075e2)"><path fill="#ffffff" d="M 134.058594 105.164062 L 64.601562 105.164062 L 103.617188 62.351562 Z M 134.058594 105.164062 " fill-opacity="1" fill-rule="nonzero"/></g><g fill="#ffffff" fill-opacity="1"><g transform="translate(21.124403, 302.947164)"><g><path d="M 47.359375 0 L 41.703125 0 L 41.703125 -10.03125 C 41.703125 -10.800781 41.425781 -11.460938 40.875 -12.015625 C 40.320312 -12.578125 39.65625 -12.859375 38.875 -12.859375 L 10.625 -12.859375 L 10.625 0 L 4.96875 0 L 4.96875 -35.578125 L 38.875 -35.578125 C 41.207031 -35.578125 43.203125 -34.75 44.859375 -33.09375 C 46.523438 -31.4375 47.359375 -29.445312 47.359375 -27.125 L 47.359375 -21.34375 C 47.359375 -19.15625 46.632812 -17.269531 45.1875 -15.6875 C 46.632812 -14.082031 47.359375 -12.195312 47.359375 -10.03125 Z M 38.875 -18.515625 C 39.65625 -18.515625 40.320312 -18.789062 40.875 -19.34375 C 41.425781 -19.894531 41.703125 -20.5625 41.703125 -21.34375 L 41.703125 -27.125 C 41.703125 -27.894531 41.425781 -28.554688 40.875 -29.109375 C 40.320312 -29.671875 39.65625 -29.953125 38.875 -29.953125 L 10.625 -29.953125 L 10.625 -18.515625 Z M 38.875 -18.515625 "/></g></g></g><g fill="#ffffff" fill-opacity="1"><g transform="translate(72.213892, 302.947164)"><g><path d="M 50.96875 0 L 47.40625 0 L 34.171875 -26.453125 L 20.921875 0 L 17.390625 0 L 0.75 -35.578125 L 6.96875 -35.578125 L 19.25 -9.296875 L 32.421875 -35.578125 L 35.921875 -35.578125 L 49.078125 -9.296875 L 61.375 -35.578125 L 67.640625 -35.578125 Z M 50.96875 0 "/></g></g></g><g fill="#ffffff" fill-opacity="1"><g transform="translate(140.597861, 302.947164)"><g><path d="M 37.640625 0 L 12.203125 0 C 9.859375 0 7.859375 -0.828125 6.203125 -2.484375 C 4.546875 -4.140625 3.71875 -6.140625 3.71875 -8.484375 L 9.375 -8.484375 C 9.375 -7.703125 9.648438 -7.035156 10.203125 -6.484375 C 10.765625 -5.929688 11.429688 -5.65625 12.203125 -5.65625 L 37.640625 -5.65625 C 38.410156 -5.65625 39.070312 -5.929688 39.625 -6.484375 C 40.1875 -7.035156 40.46875 -7.703125 40.46875 -8.484375 L 40.46875 -12.125 C 40.46875 -12.925781 40.1875 -13.597656 39.625 -14.140625 C 39.070312 -14.679688 38.410156 -14.953125 37.640625 -14.953125 L 12.203125 -14.953125 C 9.859375 -14.953125 7.859375 -15.785156 6.203125 -17.453125 C 4.546875 -19.117188 3.71875 -21.117188 3.71875 -23.453125 L 3.71875 -27.125 C 3.71875 -29.445312 4.546875 -31.4375 6.203125 -33.09375 C 7.859375 -34.75 9.859375 -35.578125 12.203125 -35.578125 L 37.640625 -35.578125 C 39.972656 -35.578125 41.96875 -34.75 43.625 -33.09375 C 45.289062 -31.4375 46.125 -29.445312 46.125 -27.125 L 40.46875 -27.125 C 40.46875 -27.894531 40.1875 -28.550781 39.625 -29.09375 C 39.070312 -29.644531 38.410156 -29.921875 37.640625 -29.921875 L 12.203125 -29.921875 C 11.429688 -29.921875 10.765625 -29.644531 10.203125 -29.09375 C 9.648438 -28.550781 9.375 -27.894531 9.375 -27.125 L 9.375 -23.453125 C 9.375 -22.671875 9.648438 -22.003906 10.203125 -21.453125 C 10.765625 -20.898438 11.429688 -20.625 12.203125 -20.625 L 37.640625 -20.625 C 39.972656 -20.625 41.96875 -19.796875 43.625 -18.140625 C 45.289062 -16.484375 46.125 -14.476562 46.125 -12.125 L 46.125 -8.484375 C 46.125 -6.140625 45.289062 -4.140625 43.625 -2.484375 C 41.96875 -0.828125 39.972656 0 37.640625 0 Z M 37.640625 0 "/></g></g></g><g fill="#ffffff" fill-opacity="1"><g transform="translate(190.44671, 302.947164)"><g/></g></g><g fill="#ffffff" fill-opacity="1"><g transform="translate(203.051593, 302.947164)"><g><path d="M 10.625 0 L 4.96875 0 L 4.96875 -35.578125 L 38.875 -35.578125 C 41.207031 -35.578125 43.203125 -34.75 44.859375 -33.09375 C 46.523438 -31.4375 47.359375 -29.445312 47.359375 -27.125 L 47.359375 -21.34375 C 47.359375 -18.988281 46.523438 -16.984375 44.859375 -15.328125 C 43.203125 -13.679688 41.207031 -12.859375 38.875 -12.859375 L 10.625 -12.859375 Z M 38.875 -18.515625 C 39.65625 -18.515625 40.320312 -18.789062 40.875 -19.34375 C 41.425781 -19.894531 41.703125 -20.5625 41.703125 -21.34375 L 41.703125 -27.125 C 41.703125 -27.894531 41.425781 -28.554688 40.875 -29.109375 C 40.320312 -29.671875 39.65625 -29.953125 38.875 -29.953125 L 10.625 -29.953125 L 10.625 -18.515625 Z M 38.875 -18.515625 "/></g></g></g><g fill="#ffffff" fill-opacity="1"><g transform="translate(254.141082, 302.947164)"><g><path d="M 34.8125 0 C 37.9375 0 40.601562 -1.101562 42.8125 -3.3125 C 45.019531 -5.519531 46.125 -8.1875 46.125 -11.3125 L 46.125 -24.296875 C 46.125 -27.398438 45.019531 -30.054688 42.8125 -32.265625 C 40.601562 -34.472656 37.9375 -35.578125 34.8125 -35.578125 L 15.03125 -35.578125 C 11.90625 -35.578125 9.238281 -34.472656 7.03125 -32.265625 C 4.820312 -30.054688 3.71875 -27.398438 3.71875 -24.296875 L 3.71875 -11.3125 C 3.71875 -8.1875 4.820312 -5.519531 7.03125 -3.3125 C 9.238281 -1.101562 11.90625 0 15.03125 0 Z M 34.8125 -5.65625 L 15.03125 -5.65625 C 13.457031 -5.65625 12.117188 -6.203125 11.015625 -7.296875 C 9.921875 -8.398438 9.375 -9.738281 9.375 -11.3125 L 9.375 -24.296875 C 9.375 -25.847656 9.921875 -27.175781 11.015625 -28.28125 C 12.117188 -29.394531 13.457031 -29.953125 15.03125 -29.953125 L 34.8125 -29.953125 C 36.363281 -29.953125 37.691406 -29.394531 38.796875 -28.28125 C 39.910156 -27.175781 40.46875 -25.847656 40.46875 -24.296875 L 40.46875 -11.3125 C 40.46875 -9.738281 39.910156 -8.398438 38.796875 -7.296875 C 37.691406 -6.203125 36.363281 -5.65625 34.8125 -5.65625 Z M 34.8125 -5.65625 "/></g></g></g><g fill="#ffffff" fill-opacity="1"><g transform="translate(303.989932, 302.947164)"><g><path d="M 37.640625 0 L 12.203125 0 C 9.859375 0 7.859375 -0.828125 6.203125 -2.484375 C 4.546875 -4.140625 3.71875 -6.140625 3.71875 -8.484375 L 9.375 -8.484375 C 9.375 -7.703125 9.648438 -7.035156 10.203125 -6.484375 C 10.765625 -5.929688 11.429688 -5.65625 12.203125 -5.65625 L 37.640625 -5.65625 C 38.410156 -5.65625 39.070312 -5.929688 39.625 -6.484375 C 40.1875 -7.035156 40.46875 -7.703125 40.46875 -8.484375 L 40.46875 -12.125 C 40.46875 -12.925781 40.1875 -13.597656 39.625 -14.140625 C 39.070312 -14.679688 38.410156 -14.953125 37.640625 -14.953125 L 12.203125 -14.953125 C 9.859375 -14.953125 7.859375 -15.785156 6.203125 -17.453125 C 4.546875 -19.117188 3.71875 -21.117188 3.71875 -23.453125 L 3.71875 -27.125 C 3.71875 -29.445312 4.546875 -31.4375 6.203125 -33.09375 C 7.859375 -34.75 9.859375 -35.578125 12.203125 -35.578125 L 37.640625 -35.578125 C 39.972656 -35.578125 41.96875 -34.75 43.625 -33.09375 C 45.289062 -31.4375 46.125 -29.445312 46.125 -27.125 L 40.46875 -27.125 C 40.46875 -27.894531 40.1875 -28.550781 39.625 -29.09375 C 39.070312 -29.644531 38.410156 -29.921875 37.640625 -29.921875 L 12.203125 -29.921875 C 11.429688 -29.921875 10.765625 -29.644531 10.203125 -29.09375 C 9.648438 -28.550781 9.375 -27.894531 9.375 -27.125 L 9.375 -23.453125 C 9.375 -22.671875 9.648438 -22.003906 10.203125 -21.453125 C 10.765625 -20.898438 11.429688 -20.625 12.203125 -20.625 L 37.640625 -20.625 C 39.972656 -20.625 41.96875 -19.796875 43.625 -18.140625 C 45.289062 -16.484375 46.125 -14.476562 46.125 -12.125 L 46.125 -8.484375 C 46.125 -6.140625 45.289062 -4.140625 43.625 -2.484375 C 41.96875 -0.828125 39.972656 0 37.640625 0 Z M 37.640625 0 "/></g></g></g></svg>